<?xml version="1.0" encoding="UTF-8"?>
<!DOCTYPE svg PUBLIC "-//W3C//DTD SVG 1.1//EN" "http://www.w3.org/Graphics/SVG/1.1/DTD/svg11.dtd">
<!-- Creator: CorelDRAW X7 -->
<svg xmlns="http://www.w3.org/2000/svg" xml:space="preserve" width="21cm" height="29.7cm" version="1.1" shape-rendering="geometricPrecision" text-rendering="geometricPrecision" image-rendering="optimizeQuality" fill-rule="evenodd" clip-rule="evenodd"
viewBox="0 0 21000 29700"
 xmlns:xlink="http://www.w3.org/1999/xlink">
 <g id="Camada_x0020_1">
  <metadata id="CorelCorpID_0Corel-Layer"/>
  <g id="_1052828680960">
   <path fill="none" stroke="black" stroke-width="20" d="M14498 14956l0 321c0,99 -80,179 -178,179l-6870 0c-98,0 -179,-80 -179,-179l0 -9783c0,-99 81,-179 179,-179l321 0"/>
   <path fill="none" stroke="black" stroke-width="20" d="M14998 14456l0 321c0,99 -80,179 -178,179l-6870 0c-98,0 -179,-80 -179,-179l0 -9783c0,-99 81,-179 179,-179l321 0"/>
   <path fill="none" stroke="black" stroke-width="20" d="M15498 13956l0 321c0,99 -80,179 -178,179l-6870 0c-98,0 -179,-80 -179,-179l0 -9783c0,-99 81,-179 179,-179l321 0"/>
   <path fill="none" stroke="black" stroke-width="20" d="M15998 13456l0 321c0,99 -80,179 -178,179l-6870 0c-98,0 -179,-80 -179,-179l0 -9783c0,-99 81,-179 179,-179l321 0"/>
   <path fill="none" stroke="black" stroke-width="20" d="M16498 12956l0 321c0,99 -80,179 -178,179l-6870 0c-98,0 -179,-80 -179,-179l0 -9783c0,-99 81,-179 179,-179l321 0"/>
   <path fill="none" stroke="black" stroke-width="20" d="M14489 12956l-4539 0c-98,0 -179,-80 -179,-179l0 -7962 0 -506 0 -494 0 -511 0 -310c0,-99 81,-179 179,-179l6870 0c98,0 178,80 178,179l0 9783c0,99 -80,179 -178,179l-1822 0 -509 0z"/>
   <polygon fill="none" stroke="black" stroke-width="20" points="14998,12956 14489,12956 "/>
   <path fill="#FFCC80" stroke="#373435" stroke-width="20" d="M9771 4315l0 500 0 500 0 7462c0,99 81,179 179,179l4539 0 9 0 500 0 500 0 500 0 500 0 322 0c98,0 178,-80 178,-179l0 -9783c0,-99 -80,-179 -178,-179l-6870 0c-98,0 -179,80 -179,179l0 310 0 11 0 500 0 494 0 6z"/>
   <path fill="#FFF3E0" stroke="#373435" stroke-width="20" d="M9771 12777c0,99 81,179 179,179l4539 0 9 0 500 0 500 0 500 0 500 0 322 0c98,0 178,-80 178,-179l0 -9783c0,-99 -80,-179 -178,-179l-6870 0c-98,0 -179,80 -179,179l0 310 0 11 0 500 0 494 0 6 0 500 0 500 0 7462z"/>
   <path fill="#FFCC80" stroke="#373435" stroke-width="20" d="M8450 14456c-98,0 -179,-80 -179,-179l0 -9462 -321 0c-98,0 -179,80 -179,179l0 321 0 9462c0,99 81,179 179,179l6548 0 322 0c98,0 178,-80 178,-179l0 -321 -6548 0z"/>
   <path fill="#FFF3E0" stroke="#373435" stroke-width="20" d="M7771 14777l0 -9462 -321 0c-98,0 -179,80 -179,179l0 9783c0,99 81,179 179,179l6870 0c98,0 178,-80 178,-179l0 -321 -6548 0c-98,0 -179,-80 -179,-179z"/>
   <path fill="#FFA726" stroke="#373435" stroke-width="20" d="M8271 4815l0 9462c0,99 81,179 179,179l6548 0 322 0c98,0 178,-80 178,-179l0 -321 -6548 0c-98,0 -179,-80 -179,-179l0 -9462 -321 0c-98,0 -179,80 -179,179l0 321z"/>
   <path fill="#FB8C00" stroke="#373435" stroke-width="20" d="M8771 4315l0 9462c0,99 81,179 179,179l6548 0 322 0c98,0 178,-80 178,-179l0 -321 -6548 0c-98,0 -179,-80 -179,-179l0 -9462 -321 0c-98,0 -179,80 -179,179l0 321z"/>
   <path fill="#EF6C00" stroke="#373435" stroke-width="20" d="M9271 3815l0 9462c0,99 81,179 179,179l6548 0 322 0c98,0 178,-80 178,-179l0 -321 -1500 0 -509 0 -4539 0c-98,0 -179,-80 -179,-179l0 -7962 0 -506 0 -494 0 -500 -321 0c-98,0 -179,80 -179,179l0 321z"/>
   <path fill="#E65100" stroke="#373435" stroke-width="20" d="M9771 4815l0 7962c0,99 81,179 179,179l4539 0 509 0 1500 0 322 0c98,0 178,-80 178,-179l0 -9783c0,-99 -80,-179 -178,-179l-6870 0c-98,0 -179,80 -179,179l0 310 0 11 0 500 0 494 0 506z"/>
  </g>
 </g>
</svg>
